<svg width="64px" height="64px" class="application-icon" fill="#000000" viewBox="0 0 36 36" version="1.1" preserveAspectRatio="xMidYMid meet" xmlns="http://www.w3.org/2000/svg" xmlns:xlink="http://www.w3.org/1999/xlink">
  <g stroke-width="0"/>
  <g stroke-linecap="round" stroke-linejoin="round"/>
  <g>
    <rect x="5" y="7" width="2" height="2" class="clr-i-outline clr-i-outline-path-1"/>
    <rect x="9" y="7" width="2" height="2" class="clr-i-outline clr-i-outline-path-2"/>
    <rect x="13" y="7" width="2" height="2" class="clr-i-outline clr-i-outline-path-3"/>
    <path d="M32,4H4A2,2,0,0,0,2,6V30a2,2,0,0,0,2,2H32a2,2,0,0,0,2-2V6A2,2,0,0,0,32,4ZM4,6H32v4.2H4ZM4,30V11.8H32V30Z" class="clr-i-outline clr-i-outline-path-4"/>
    <rect x="0" y="0" width="36" height="36" fill-opacity="0"/>
  </g>
</svg>
