<svg height="30px" width="30px" class="db-database" xmlns="http://www.w3.org/2000/svg" viewBox="1 0 50 54" xml:space="preserve">
    <g stroke-width="0"/>
    <g stroke-linecap="round" stroke-linejoin="round"/>
    <path fill="#000000" d="M50.455 8C49.724 3.538 39.281 0 26.5 0S3.276 3.538 2.545 8H2.5v37h.045c.731 4.461 11.175 8 23.955 8s23.224-3.539 23.955-8h.045V8h-.045z"/>
    <path fill="#F4290E" d="M26.5 41c-13.255 0-24-3.806-24-8.5V45h.045c.731 4.461 11.175 8 23.955 8s23.224-3.539 23.955-8h.045V32.5c0 4.694-10.745 8.5-24 8.5zm-24-9v.5c0-.168.018-.334.045-.5H2.5zm47.955 0c.027.166.045.332.045.5V32h-.045z"/>
    <path fill="#F3A36F" d="M26.5 29c-13.255 0-24-3.806-24-8.5V33h.045c.731 4.461 11.175 8 23.955 8s23.224-3.539 23.955-8h.045V20.5c0 4.694-10.745 8.5-24 8.5zm-24-9v.5c0-.168.018-.334.045-.5H2.5zm47.955 0c.027.166.045.332.045.5V20h-.045z"/>
    <ellipse fill="#8A0101" cx="26.5" cy="8.5" rx="24" ry="8.5"/>
    <path fill="#F4290E" d="M26.5 17c-13.255 0-24-3.806-24-8.5V21h.045c.731 4.461 11.175 8 23.955 8s23.224-3.539 23.955-8h.045V8.5c0 4.694-10.745 8.5-24 8.5zm-24-9v.5c0-.168.018-.334.045-.5H2.5zm47.955 0c.027.166.045.332.045.5V8h-.045z"/>
</svg>
