<svg height="30px" width="30px" class="db-settings-icon" xmlns="http://www.w3.org/2000/svg" viewBox="0 0 57 57" xml:space="preserve">
    <g stroke-width="0"/>
    <g stroke-linecap="round" stroke-linejoin="round"/>
    <path fill="#000000" d="M49.455 8C48.724 3.538 38.281 0 25.5 0S2.276 3.538 1.545 8H1.5v37h.045c.731 4.461 11.175 8 23.955 8s23.224-3.539 23.955-8h.045V8h-.045z"/>
    <path fill="#F4290E" d="M25.5 41c-13.255 0-24-3.806-24-8.5V45h.045c.731 4.461 11.175 8 23.955 8s23.224-3.539 23.955-8h.045V32.5c0 4.694-10.745 8.5-24 8.5zm-24-9v.5c0-.168.018-.334.045-.5H1.5zm47.955 0c.027.166.045.332.045.5V32h-.045z"/>
    <path fill="#F3A36F" d="M25.5 29c-13.255 0-24-3.806-24-8.5V33h.045c.731 4.461 11.175 8 23.955 8s23.224-3.539 23.955-8h.045V20.5c0 4.694-10.745 8.5-24 8.5zm-24-9v.5c0-.168.018-.334.045-.5H1.5zm47.955 0c.027.166.045.332.045.5V20h-.045z"/>
    <ellipse fill="#8A0101" cx="25.5" cy="8.5" rx="24" ry="8.5"/>
    <path fill="#F4290E" d="M25.5 17c-13.255 0-24-3.806-24-8.5V21h.045c.731 4.461 11.175 8 23.955 8s23.224-3.539 23.955-8h.045V8.5c0 4.694-10.745 8.5-24 8.5zm-24-9v.5c0-.168.018-.334.045-.5H1.5zm47.955 0c.027.166.045.332.045.5V8h-.045z"/>
    <path fill="#000000" d="m55.5 43.846-1.444-.278c-2.143-.412-3.125-2.916-1.835-4.675l.907-1.236-1.958-1.958-1.217.825c-1.806 1.224-4.272.148-4.604-2.008L45.115 33h-2.769l-.359 1.865c-.403 2.096-2.818 3.096-4.585 1.899l-1.572-1.065-1.958 1.958.907 1.236c1.29 1.76.308 4.263-1.835 4.675l-1.444.278v2.769l1.515.233c2.157.332 3.232 2.797 2.008 4.604l-.825 1.217 1.958 1.958 1.236-.907c1.76-1.29 4.263-.308 4.675 1.835L42.346 57h2.769l.164-1.066c.339-2.204 2.896-3.263 4.694-1.944l.869.638L52.8 52.67l-.825-1.217c-1.224-1.806-.148-4.272 2.008-4.604l1.515-.233v-2.77z"/>
    <circle fill="#000000" cx="43.5" cy="45" r="4"/>
    <path fill="#FFFFFF" d="M43.5 50c-2.757 0-5-2.243-5-5s2.243-5 5-5 5 2.243 5 5-2.243 5-5 5zm0-8c-1.654 0-3 1.346-3 3s1.346 3 3 3 3-1.346 3-3-1.346-3-3-3z"/>
</svg>
