<svg width="24" height="24" class="version-history-icon" fill="currentColor" viewBox="0 0 512 512" xmlns="http://www.w3.org/2000/svg">
  <g stroke-width="0"/>
  <g stroke-linecap="round" stroke-linejoin="round"/>
  <path d="M277.334 64c106.038 0 192 85.961 192 192s-85.962 192-192 192c-52.074 0-99.306-20.73-133.893-54.389l29.755-30.58c26.9 26.179 63.636 42.302 104.138 42.302 82.474 0 149.333-66.858 149.333-149.333s-66.86-149.333-149.333-149.333C194.859 106.667 128 173.525 128 256c0 4.042.16 8.047.476 12.008l42.19-42.178L200.837 256l-94.17 94.17L12.497 256l30.17-30.17 43.094 43.086A194.86 194.86 0 0 1 85.334 256c0-106.039 85.96-192 192-192Zm-33.013 127.127 33.215 88.555 33.213-88.555h45.57l-56 149.333h-45.568l-55.999-149.333h45.569Z" fill-rule="evenodd"/>
</svg>
